# xmcd CD database file
#
# Track frame offsets:
# 182
# 16965
# 24930
# 39015
# 49617
# 64100
# 75432
# 93577
# 105252
# 119152
# 130022
# 144587
# 159262
# 171850
# 184765
# 196245
# 209652
# 220990
# 234300
# 245485
# 260910
# 273847
# 288890
# 304197
# 315702
# 326885
#
# Disc length: 4679 seconds
#
# Revision: 4
# Processed by: cddbd v1.5.2PL0 Copyright (c) Steve Scherf et al.
# Submitted via: FreeDB 13.2
#
DISCID=6d12451a
DTITLE=Tom Paxton - The Best of Tom Paxton
DYEAR=1999
DGENRE=Folk
TTITLE0=I Can't Help But Wonder Where I'm Bound
TTITLE1=What Did You Learn in School Today?
TTITLE2=The Last Thing on My Mind
TTITLE3=Daily News
TTITLE4=My Lady's a Wild, Flying Dove
TTITLE5=Goin' to the Zoo
TTITLE6=Ramblin' Boy
TTITLE7=The Willing Conscript
TTITLE8=Lyndon Johnson Told the Nation
TTITLE9=Bottle of Wine
TTITLE10=Every Time
TTITLE11=Leaving London
TTITLE12=My Son, John
TTITLE13=One Time and One Time Only
TTITLE14=Outward Bound
TTITLE15=Victoria Dines Alone
TTITLE16=All Night Long
TTITLE17=Forest Lawn
TTITLE18=Whose Garden Was His
TTITLE19=Cindy's Cryin'
TTITLE20=Clarissa Jones
TTITLE21=Now That I've Taken My Life
TTITLE22=Talking Vietnam Potluck Blues
TTITLE23=Jimmy Newman
TTITLE24=The Marvelous Toy
TTITLE25=Jennifer's Rabbit - I Give You the Morning
EXTD=
EXTT0=
EXTT1=
EXTT2=
EXTT3=
EXTT4=
EXTT5=
EXTT6=
EXTT7=
EXTT8=
EXTT9=
EXTT10=
EXTT11=
EXTT12=
EXTT13=
EXTT14=
EXTT15=
EXTT16=
EXTT17=
EXTT18=
EXTT19=
EXTT20=
EXTT21=
EXTT22=
EXTT23=
EXTT24=
EXTT25=
PLAYORDER=
